<?xml version="1.0" encoding="UTF-8"?>
<svg version="1.1" xmlns="http://www.w3.org/2000/svg" width="192" height="192">
<path d="M0 0 C63.36 0 126.72 0 192 0 C192 63.36 192 126.72 192 192 C128.64 192 65.28 192 0 192 C0 128.64 0 65.28 0 0 Z " fill="#FAFBFB" transform="translate(0,0)"/>
<path d="M0 0 C46.53 0 93.06 0 141 0 C141 23.1 141 46.2 141 70 C116.57373511 70.40108809 116.57373511 70.40108809 106.15039062 70.48828125 C99.0413131 70.54803202 91.93352513 70.61866003 84.82543945 70.75439453 C79.093536 70.86316301 73.36301525 70.92286476 67.63015938 70.94877243 C65.44472036 70.96723069 63.25935596 71.00327842 61.07450676 71.05730057 C43.95583546 71.46368527 43.95583546 71.46368527 39.1711731 67.88299561 C37.32362757 65.29677379 36.15955972 62.94842001 35 60 C34.46476715 59.1598082 33.9295343 58.31961639 33.37808228 57.45396423 C31.90581927 54.83229148 31.6331759 53.45112299 31.65942383 50.48510742 C31.65965042 49.62459274 31.65987701 48.76407806 31.66011047 47.87748718 C31.67559433 46.9627211 31.69107819 46.04795502 31.70703125 45.10546875 C31.71127609 44.15811356 31.71552094 43.21075836 31.71989441 42.23469543 C31.73664311 39.21867053 31.77428854 36.20332184 31.8125 33.1875 C31.82755175 31.13868155 31.8412393 29.08985259 31.85351562 27.04101562 C31.88653421 22.0270845 31.93829053 17.01365678 32 12 C28.04 12 24.08 12 20 12 C20 18.93 20 25.86 20 33 C16.16986066 30.12739549 15.40777148 29.09930521 13.76855469 24.88623047 C12.50796115 21.79241036 10.80408884 18.94260377 9.125 16.0625 C8.60099609 15.15334839 8.60099609 15.15334839 8.06640625 14.22583008 C6.10507903 10.84009801 4.0897633 7.49529677 2 4.1875 C0 1 0 1 0 0 Z " fill="#FEFEFE" transform="translate(51,0)"/>
<path d="M0 0 C62.7 0 125.4 0 190 0 C190 0.66 190 1.32 190 2 C190.66 2 191.32 2 192 2 C192 13.55 192 25.1 192 37 C128.64 37 65.28 37 0 37 C0 24.79 0 12.58 0 0 Z " fill="#F4F6F6" transform="translate(0,155)"/>
<path d="M0 0 C1.7265625 0.06640625 1.7265625 0.06640625 4 1 C5.63023467 3.29714885 7.01155567 5.49056482 8.375 7.9375 C9.16521345 9.30868086 9.95557842 10.67977441 10.74609375 12.05078125 C11.12878418 12.72447754 11.51147461 13.39817383 11.90576172 14.09228516 C13.79784529 17.39097792 15.81479667 20.61377237 17.80859375 23.8515625 C19.09353848 26.16867595 20.02938654 28.53775113 21 31 C21.33 31.33 21.66 31.66 22 32 C22.33 25.4 22.66 18.8 23 12 C26.96 12 30.92 12 35 12 C34.98316162 13.22928223 34.96632324 14.45856445 34.94897461 15.72509766 C34.89776921 20.35140436 34.90689111 24.97607592 34.93286133 29.60253906 C34.93591537 31.59248817 34.92330199 33.58253289 34.89379883 35.57226562 C34.85387073 38.4587044 34.87312287 41.34008656 34.90234375 44.2265625 C34.87776596 45.09487701 34.85318817 45.96319153 34.8278656 46.8578186 C35.00162926 54.58276896 37.73029766 62.17442776 43.18801689 67.72352982 C49.76052289 72.35359944 59.92895253 70.77199471 67.53515625 70.5859375 C69.74189584 70.58225994 71.94865361 70.58476344 74.15538025 70.59317017 C79.94212098 70.5987081 85.72478854 70.52068675 91.51062012 70.42486572 C97.42293165 70.34186131 103.33524078 70.33840318 109.24804688 70.328125 C120.83339918 70.29632458 132.41600644 70.17619077 144 70 C144 74.29 144 78.58 144 83 C130.86578049 83.0231312 117.73156579 83.04091907 104.59733009 83.05181217 C98.49912422 83.05703929 92.40093225 83.06413386 86.30273438 83.07543945 C80.42186725 83.08627438 74.54101351 83.09227813 68.66013718 83.09487724 C66.41217208 83.09673039 64.16420774 83.10034892 61.91624832 83.10573006 C58.77699425 83.11294849 55.63779614 83.1139906 52.49853516 83.11352539 C51.56130112 83.11712067 50.62406708 83.12071594 49.65843201 83.12442017 C48.80585312 83.1230455 47.95327423 83.12167084 47.07485962 83.12025452 C46.33189447 83.12117631 45.58892933 83.1220981 44.82345009 83.12304783 C43 83 43 83 41 82 C40.31077726 80.38032656 39.62600368 78.75864764 38.9609375 77.12890625 C37.03859334 72.87005434 34.4427249 68.97478482 32 65 C30.62256937 62.70974828 29.24750539 60.41819602 27.875 58.125 C25.26713583 53.77406437 22.65467526 49.42596149 20.03515625 45.08203125 C14.23499912 35.4542475 8.51380089 25.79510512 3 16 C-0.60738706 17.20246235 -0.82036339 17.93492951 -2.6015625 21.1640625 C-3.329198 22.4639209 -3.329198 22.4639209 -4.0715332 23.79003906 C-4.58417725 24.72557617 -5.09682129 25.66111328 -5.625 26.625 C-6.71362766 28.5709933 -7.80347675 30.51630381 -8.89453125 32.4609375 C-9.42771973 33.41581055 -9.9609082 34.37068359 -10.51025391 35.35449219 C-12.38840333 38.68973098 -14.33482096 41.9727033 -16.3125 45.25 C-16.65112061 45.81138672 -16.98974121 46.37277344 -17.33862305 46.95117188 C-19.15981539 49.9667958 -20.98710106 52.97872404 -22.81347656 55.99121094 C-24.85813937 59.36714326 -26.89789639 62.74600923 -28.9375 66.125 C-29.60112549 67.2171582 -30.26475098 68.30931641 -30.94848633 69.43457031 C-31.57263428 70.46936523 -32.19678223 71.50416016 -32.83984375 72.5703125 C-33.40050537 73.49602051 -33.96116699 74.42172852 -34.53881836 75.37548828 C-35.92575517 77.86664463 -37.00839829 80.33018705 -38 83 C-40.97 83 -43.94 83 -47 83 C-46.43872284 78.31378115 -44.35466781 74.82449237 -41.9375 70.875 C-41.02585018 69.35558363 -40.11440644 67.83604359 -39.203125 66.31640625 C-38.69587891 65.47609863 -38.18863281 64.63579102 -37.66601562 63.77001953 C-34.82401079 59.04472837 -32.02258852 54.29539654 -29.21533203 49.54940796 C-27.49437703 46.64120861 -25.7704428 43.73477631 -24.046875 40.828125 C-11.95930388 20.45175988 -11.95930388 20.45175988 0 0 Z " fill="#5A7A7B" transform="translate(48,0)"/>
<path d="M0 0 C15.84 0 31.68 0 48 0 C46.2561087 4.35972825 44.2487499 8.31328874 41.9375 12.375 C41.42026367 13.29732422 41.42026367 13.29732422 40.89257812 14.23828125 C37.51740157 20.20838338 33.96812562 26.07421873 30.43286133 31.95019531 C26.79413254 38.00075346 23.19160954 44.0728358 19.58789062 50.14428711 C18.36908815 52.19745899 17.14941478 54.25011179 15.9296875 56.30273438 C11.71776004 63.39495966 7.52898842 70.49875492 3.39697266 77.63793945 C2.31989023 79.45911604 1.17365841 81.23951238 0 83 C0 55.61 0 28.22 0 0 Z " fill="#FDFEFE" transform="translate(0,0)"/>
<path d="M0 0 C0.99 0.33 1.98 0.66 3 1 C3.33 5.95 3.66 10.9 4 16 C6.31 16.33 8.62 16.66 11 17 C11 11.72 11 6.44 11 1 C12.65 1.33 14.3 1.66 16 2 C16.02468084 7.09032841 16.04285082 12.18062215 16.05493164 17.27099609 C16.05996682 19.00342414 16.06679532 20.73584792 16.07543945 22.46826172 C16.08754065 24.95541433 16.09323638 27.44251087 16.09765625 29.9296875 C16.10281754 30.70682098 16.10797882 31.48395447 16.11329651 32.28463745 C16.11387171 37.77225659 16.11387171 37.77225659 15 40 C13.68 39.67 12.36 39.34 11 39 C11 34.05 11 29.1 11 24 C8.69 24 6.38 24 4 24 C4.01160156 24.98742187 4.02320313 25.97484375 4.03515625 26.9921875 C4.04417969 28.27351563 4.05320313 29.55484375 4.0625 30.875 C4.07410156 32.15117187 4.08570313 33.42734375 4.09765625 34.7421875 C4 38 4 38 3 40 C1.68 40 0.36 40 -1 40 C-2.57667147 36.84665706 -2.16297041 33.46237759 -2.16796875 30 C-2.17129715 29.20851562 -2.17462555 28.41703125 -2.17805481 27.6015625 C-2.1831204 25.92708925 -2.18546325 24.2526059 -2.18530273 22.578125 C-2.18749127 20.01024865 -2.20565609 17.44280041 -2.22460938 14.875 C-2.22754291 13.25000147 -2.22952797 11.6250009 -2.23046875 10 C-2.23765427 9.22914062 -2.24483978 8.45828125 -2.25224304 7.6640625 C-2.2288272 2.2288272 -2.2288272 2.2288272 0 0 Z " fill="#617F80" transform="translate(135,103)"/>
<path d="M0 0 C0.99 0.33 1.98 0.66 3 1 C3.8668992 3.88966399 4.37714011 6.07582004 3.2109375 8.93359375 C2.85257813 9.59488281 2.49421875 10.25617188 2.125 10.9375 C0.07213039 14.74791412 -1.0764883 17.56367871 -1 22 C0.14774849 24.60775208 1.47207988 27.06247305 2.8515625 29.5546875 C4.4508972 32.96007364 4.40152825 35.30594011 4 39 C1.525 39.495 1.525 39.495 -1 40 C-2.65 35.71 -4.3 31.42 -6 27 C-6.33 31.29 -6.66 35.58 -7 40 C-8.32 40 -9.64 40 -11 40 C-12.58645357 36.82709287 -12.12078213 33.41174616 -12.09765625 29.9296875 C-12.0962413 29.13345978 -12.09482635 28.33723206 -12.09336853 27.51687622 C-12.08776345 24.9695462 -12.07521014 22.42230353 -12.0625 19.875 C-12.05748565 18.14974085 -12.05292263 16.42448033 -12.04882812 14.69921875 C-12.03779237 10.46611209 -12.02052436 6.23307086 -12 2 C-10.35 1.67 -8.7 1.34 -7 1 C-6.67 4.96 -6.34 8.92 -6 13 C-5.65066406 12.14535156 -5.30132812 11.29070312 -4.94140625 10.41015625 C-4.25884766 8.75306641 -4.25884766 8.75306641 -3.5625 7.0625 C-3.11003906 5.96035156 -2.65757813 4.85820313 -2.19140625 3.72265625 C-1 1 -1 1 0 0 Z " fill="#607F80" transform="translate(105,103)"/>
<path d="M0 0 C2.0625 0.4375 2.0625 0.4375 4 1 C5.01054002 4.96191584 6.00681567 8.92713585 6.99072266 12.89575195 C7.32645846 14.24175314 7.66589329 15.58683784 8.00927734 16.9309082 C9.92181667 24.42772779 11.47658113 31.24704629 11 39 C9.68 39 8.36 39 7 39 C6.34 36.36 5.68 33.72 5 31 C2.69 31 0.38 31 -2 31 C-2.99 33.64 -3.98 36.28 -5 39 C-6.32 38.34 -7.64 37.68 -9 37 C-8.50733836 26.98254662 -5.68787053 17.60747996 -3 8 C-2.81163574 7.30567871 -2.62327148 6.61135742 -2.42919922 5.89599609 C-1.11391306 1.11391306 -1.11391306 1.11391306 0 0 Z " fill="#587879" transform="translate(79,104)"/>
<path d="M0 0 C1.32 0 2.64 0 4 0 C4 5.28 4 10.56 4 16 C7.465 15.505 7.465 15.505 11 15 C11.33 10.05 11.66 5.1 12 0 C13.32 0 14.64 0 16 0 C16 12.87 16 25.74 16 39 C14.68 39 13.36 39 12 39 C12 33.72 12 28.44 12 23 C9.36 23 6.72 23 4 23 C4 28.28 4 33.56 4 39 C2.68 39 1.36 39 0 39 C-1.58157077 35.83685847 -1.1418935 32.43710457 -1.1328125 28.96484375 C-1.13376923 28.1709877 -1.13472595 27.37713165 -1.13571167 26.55921936 C-1.13639251 24.88054322 -1.1345449 23.20186445 -1.13037109 21.52319336 C-1.12501441 18.94443903 -1.13032292 16.36585832 -1.13671875 13.78710938 C-1.13605809 12.15885378 -1.13477718 10.53059829 -1.1328125 8.90234375 C-1.13483673 8.12632309 -1.13686096 7.35030243 -1.13894653 6.55076599 C-1.11495583 1.11495583 -1.11495583 1.11495583 0 0 Z " fill="#577778" transform="translate(51,104)"/>
<path d="M0 0 C1.875 1.625 1.875 1.625 3 4 C2.6875 7.25 2.6875 7.25 2 10 C-1 10 -1 10 -4 9 C-4 10.65 -4 12.3 -4 14 C-3.236875 14.0825 -2.47375 14.165 -1.6875 14.25 C1.6631031 15.18505203 2.2754397 16.02166454 4 19 C5.1035846 26.60578573 4.61476902 32.79890413 0 39 C-3.45669582 39.31424507 -5.39901677 39.37956836 -8.375 37.5 C-10.76454977 33.82376959 -10.35040654 31.34504114 -10 27 C-9.67 26.34 -9.34 25.68 -9 25 C-6 26 -6 26 -5 28 C-2.97536745 28.65213292 -2.97536745 28.65213292 -1 29 C-2.00556306 25.48052928 -3.24245062 23.59993105 -6.0625 21.375 C-9 19 -9 19 -10 16 C-10.11880354 14.1903182 -10.1751965 12.37603553 -10.1875 10.5625 C-10.20167969 9.61503906 -10.21585938 8.66757813 -10.23046875 7.69140625 C-9.9917319 4.90344541 -9.57694455 3.29992909 -8 1 C-4.97923697 -0.00692101 -3.1408885 -0.39261106 0 0 Z " fill="#5B7B7C" transform="translate(43,104)"/>
<path d="M0 0 C2.97922593 -0.02683987 5.95821295 -0.04676037 8.9375 -0.0625 C9.78763672 -0.07087891 10.63777344 -0.07925781 11.51367188 -0.08789062 C12.32255859 -0.09111328 13.13144531 -0.09433594 13.96484375 -0.09765625 C14.7137085 -0.10289307 15.46257324 -0.10812988 16.23413086 -0.11352539 C18 0 18 0 19 1 C19.23529412 6.52941176 19.23529412 6.52941176 18 9 C16.02 9 14.04 9 12 9 C12.00523682 9.86802246 12.01047363 10.73604492 12.01586914 11.63037109 C12.03289862 14.84700273 12.04544408 18.06361141 12.05493164 21.28027344 C12.0599643 22.67318477 12.06679098 24.0660908 12.07543945 25.45898438 C12.08755152 27.45961246 12.09270412 29.46027888 12.09765625 31.4609375 C12.10289307 32.66540527 12.10812988 33.86987305 12.11352539 35.11083984 C12 38 12 38 11 40 C9.68 40 8.36 40 7 40 C7 29.77 7 19.54 7 9 C4.69 9 2.38 9 0 9 C0 6.03 0 3.06 0 0 Z " fill="#648282" transform="translate(112,103)"/>
<path d="M0 0 C1.98 0.495 1.98 0.495 4 1 C4 13.87 4 26.74 4 40 C2.68 40 1.36 40 0 40 C-1.6082664 36.78346721 -1.14179685 33.27848471 -1.1328125 29.74609375 C-1.13376923 28.93004166 -1.13472595 28.11398956 -1.13571167 27.27320862 C-1.13639256 25.54745405 -1.13454461 23.82169692 -1.13037109 22.09594727 C-1.12501468 19.44476617 -1.13032267 16.79375397 -1.13671875 14.14257812 C-1.13605809 12.46874962 -1.13477717 10.79492123 -1.1328125 9.12109375 C-1.13483673 8.32319931 -1.13686096 7.52530487 -1.13894653 6.70323181 C-1.11495544 1.11495544 -1.11495544 1.11495544 0 0 Z " fill="#618081" transform="translate(155,103)"/>
<path d="M0 0 C0.99 0 1.98 0 3 0 C3.66 1.98 4.32 3.96 5 6 C5.66 6 6.32 6 7 6 C7.66 4.68 8.32 3.36 9 2 C9.66 2 10.32 2 11 2 C11 7.94 11 13.88 11 20 C7.37 20 3.74 20 0 20 C0 13.4 0 6.8 0 0 Z " fill="#6F8B8B" transform="translate(70,172)"/>
<path d="M0 0 C4 0 4 0 5.734375 1.65234375 C7.27119652 4.5030528 7.33766043 6.34097922 7.25 9.5625 C7.23453125 10.51253906 7.2190625 11.46257812 7.203125 12.44140625 C7 15 7 15 6 18 C5.34 18 4.68 18 4 18 C4 18.66 4 19.32 4 20 C2.35 20 0.7 20 -1 20 C-3.43160427 15.13679146 -4.01316385 10.10391237 -2.32421875 4.9296875 C-1.61062427 3.2589971 -0.81245597 1.62491194 0 0 Z " fill="#758F90" transform="translate(58,172)"/>
<path d="M0 0 C0.99 0.33 1.98 0.66 3 1 C3 2.98 3 4.96 3 7 C3.66 7 4.32 7 5 7 C5 5.02 5 3.04 5 1 C5.99 1 6.98 1 8 1 C8 7.27 8 13.54 8 20 C5.03 20 2.06 20 -1 20 C-1.02683697 16.85411056 -1.04675902 13.70844729 -1.0625 10.5625 C-1.07087891 9.66466797 -1.07925781 8.76683594 -1.08789062 7.84179688 C-1.09111328 6.98779297 -1.09433594 6.13378906 -1.09765625 5.25390625 C-1.10551147 4.06776733 -1.10551147 4.06776733 -1.11352539 2.85766602 C-1 1 -1 1 0 0 Z " fill="#8EA4A4" transform="translate(41,172)"/>
<path d="M0 0 C0.66 0 1.32 0 2 0 C5.44419134 13.6332574 5.44419134 13.6332574 5 20 C1.7 20 -1.6 20 -5 20 C-3.68421053 3.68421053 -3.68421053 3.68421053 0 0 Z " fill="#779192" transform="translate(132,172)"/>
<path d="M0 0 C2.31 0 4.62 0 7 0 C7.33 1.65 7.66 3.3 8 5 C6.35 5 4.7 5 3 5 C3 5.99 3 6.98 3 8 C3.99 8 4.98 8 6 8 C6 9.65 6 11.3 6 13 C5.01 13 4.02 13 3 13 C3 13.66 3 14.32 3 15 C4.65 15 6.3 15 8 15 C8 16.65 8 18.3 8 20 C5.36 20 2.72 20 0 20 C0 13.4 0 6.8 0 0 Z " fill="#6F8A8B" transform="translate(87,172)"/>
<path d="M0 0 C2.625 0.375 2.625 0.375 5 1 C5 2.65 5 4.3 5 6 C3.68 5.67 2.36 5.34 1 5 C1 5.99 1 6.98 1 8 C2.32 8.66 3.64 9.32 5 10 C5.125 17.75 5.125 17.75 4 20 C2.35 20 0.7 20 -1 20 C-1 18.02 -1 16.04 -1 14 C0.32 14.66 1.64 15.32 3 16 C2.25931761 12.91330709 2.25931761 12.91330709 -0.0625 11.25 C-2 9 -2 9 -2.375 5.375 C-2 2 -2 2 0 0 Z " fill="#607E7F" transform="translate(102,172)"/>
<path d="M0 0 C2.97 0 5.94 0 9 0 C9 1.65 9 3.3 9 5 C8.01 5 7.02 5 6 5 C6 9.95 6 14.9 6 20 C5.01 20 4.02 20 3 20 C3 15.05 3 10.1 3 5 C2.01 5 1.02 5 0 5 C0 3.35 0 1.7 0 0 Z " fill="#779192" transform="translate(113,172)"/>
<path d="M0 0 C1.98 0 3.96 0 6 0 C6 4.29 6 8.58 6 13 C4.02 13 2.04 13 0 13 C-1 12 -1 12 -1.1328125 9.53125 C-1.13023438 8.5309375 -1.12765625 7.530625 -1.125 6.5 C-1.12757812 5.4996875 -1.13015625 4.499375 -1.1328125 3.46875 C-1 1 -1 1 0 0 Z " fill="#748F90" transform="translate(53,70)"/>
<path d="M0 0 C1.98 0 3.96 0 6 0 C6 4.29 6 8.58 6 13 C4.02 13 2.04 13 0 13 C-1 12 -1 12 -1.1328125 9.53125 C-1.13023438 8.5309375 -1.12765625 7.530625 -1.125 6.5 C-1.12757812 5.4996875 -1.13015625 4.499375 -1.1328125 3.46875 C-1 1 -1 1 0 0 Z " fill="#738E8E" transform="translate(41,70)"/>
<path d="M0 0 C2.31 0 4.62 0 7 0 C7 3.96 7 7.92 7 12 C4.69 12 2.38 12 0 12 C0 8.04 0 4.08 0 0 Z " fill="#6D8989" transform="translate(40,47)"/>
<path d="M0 0 C0.66 0 1.32 0 2 0 C2.33 1.65 2.66 3.3 3 5 C3.66 5 4.32 5 5 5 C5.33 3.35 5.66 1.7 6 0 C6.66 0 7.32 0 8 0 C8.25067385 5.5148248 8.25067385 5.5148248 7.03125 7.875 C5.80792319 10.39579464 5.59482208 12.465587 5.375 15.25 C5.30023438 16.14203125 5.22546875 17.0340625 5.1484375 17.953125 C5.09945312 18.62859375 5.05046875 19.3040625 5 20 C4.34 20 3.68 20 3 20 C2.96261719 19.33613281 2.92523438 18.67226562 2.88671875 17.98828125 C2.49482355 12.72459076 1.83616589 9.51208209 -1 5 C-0.6875 2.1875 -0.6875 2.1875 0 0 Z " fill="#587879" transform="translate(143,172)"/>
<path d="M0 0 C1.98 0 3.96 0 6 0 C6 3.96 6 7.92 6 12 C4.02 12 2.04 12 0 12 C0 8.04 0 4.08 0 0 Z " fill="#607E7F" transform="translate(53,47)"/>
<path d="M0 0 C0.66 1.32 1.32 2.64 2 4 C2.66 4 3.32 4 4 4 C4.66 2.68 5.32 1.36 6 0 C6.66 0 7.32 0 8 0 C8 5.94 8 11.88 8 18 C7.34 18 6.68 18 6 18 C5.67 15.03 5.34 12.06 5 9 C4.01 8.67 3.02 8.34 2 8 C0.04457812 5.01540871 0 3.73585209 0 0 Z " fill="#738E8F" transform="translate(73,174)"/>
<path d="M0 0 C0.66 1.32 1.32 2.64 2 4 C3.32 4 4.64 4 6 4 C6.33 3.01 6.66 2.02 7 1 C7.66 1.33 8.32 1.66 9 2 C9 4.31 9 6.62 9 9 C5.7 9 2.4 9 -1 9 C-0.67 6.03 -0.34 3.06 0 0 Z " fill="#7B9595" transform="translate(128,183)"/>
<path d="M0 0 C2.475 0.495 2.475 0.495 5 1 C5 2.32 5 3.64 5 5 C4.01 5 3.02 5 2 5 C2 5.66 2 6.32 2 7 C3.65 7 5.3 7 7 7 C7 8.65 7 10.3 7 12 C4.69 12 2.38 12 0 12 C0 8.04 0 4.08 0 0 Z " fill="#6E8A8A" transform="translate(88,180)"/>
<path d="M0 0 C2 2 2 2 2.1953125 4.6015625 C2.17210937 5.59929687 2.14890625 6.59703125 2.125 7.625 C2.10695312 8.62789062 2.08890625 9.63078125 2.0703125 10.6640625 C2.03550781 11.82035156 2.03550781 11.82035156 2 13 C3.65 13 5.3 13 7 13 C7 8.71 7 4.42 7 0 C7.33 0 7.66 0 8 0 C8 4.95 8 9.9 8 15 C5.69 15 3.38 15 1 15 C0 14 0 14 -0.09765625 10.83984375 C-0.08025391 8.90818359 -0.08025391 8.90818359 -0.0625 6.9375 C-0.05347656 5.64714844 -0.04445312 4.35679688 -0.03515625 3.02734375 C-0.02355469 2.02832031 -0.01195312 1.02929688 0 0 Z " fill="#C4CFCF" transform="translate(138,105)"/>
<path d="M0 0 C0.33 0 0.66 0 1 0 C1 3.3 1 6.6 1 10 C-0.98 10 -2.96 10 -5 10 C-5 7.03 -5 4.06 -5 1 C-3.02 1.99 -3.02 1.99 -1 3 C-0.67 2.01 -0.34 1.02 0 0 Z " fill="#D9E1E1" transform="translate(78,182)"/>
<path d="M0 0 C0.66 0 1.32 0 2 0 C2 2.64 2 5.28 2 8 C3.65 7.67 5.3 7.34 7 7 C7 7.99 7 8.98 7 10 C5.35 10 3.7 10 2 10 C2 12.64 2 15.28 2 18 C1.34 18 0.68 18 0 18 C0 12.06 0 6.12 0 0 Z " fill="#5A7A7B" transform="translate(41,174)"/>
<path d="M0 0 C2.625 0.375 2.625 0.375 5 1 C5 2.65 5 4.3 5 6 C3.68 5.67 2.36 5.34 1 5 C0.67 5.99 0.34 6.98 0 8 C-0.99 8.495 -0.99 8.495 -2 9 C-2.125 5.625 -2.125 5.625 -2 2 C-1.34 1.34 -0.68 0.68 0 0 Z " fill="#7D9697" transform="translate(102,172)"/>
<path d="M0 0 C1.32 0 2.64 0 4 0 C6.20914 3.31371 6.22481553 4.3446021 6.125 8.1875 C6.10695313 9.08855469 6.08890625 9.98960937 6.0703125 10.91796875 C6.03550781 11.94857422 6.03550781 11.94857422 6 13 C5.67 13 5.34 13 5 13 C4.34 10.03 3.68 7.06 3 4 C1.68 4 0.36 4 -1 4 C-0.67 2.68 -0.34 1.36 0 0 Z " fill="#638182" transform="translate(58,172)"/>
<path d="M0 0 C0.99 0.33 1.98 0.66 3 1 C3 3.64 3 6.28 3 9 C1.68 9 0.36 9 -1 9 C-1.09765625 2.84765625 -1.09765625 2.84765625 -1 1 C-0.67 0.67 -0.34 0.34 0 0 Z " fill="#EAEEEE" transform="translate(59,177)"/>
<path d="M0 0 C1.32 0 2.64 0 4 0 C4 2.64 4 5.28 4 8 C2.68 8 1.36 8 0 8 C0 5.36 0 2.72 0 0 Z " fill="#DDE3E3" transform="translate(43,184)"/>
<path d="M0 0 C3 1 3 1 4 3 C6.01669827 4.13350534 6.01669827 4.13350534 8 5 C5 6 5 6 2.8125 5.0625 C2.214375 4.711875 1.61625 4.36125 1 4 C0.67 5.98 0.34 7.96 0 10 C-0.33 10 -0.66 10 -1 10 C-1.125 2.25 -1.125 2.25 0 0 Z " fill="#8BA1A2" transform="translate(34,129)"/>
<path d="M0 0 C2.97 0.495 2.97 0.495 6 1 C6 2.32 6 3.64 6 5 C4.02 5 2.04 5 0 5 C0 3.35 0 1.7 0 0 Z " fill="#4B6E6F" transform="translate(88,187)"/>
<path d="M0 0 C0.66 0 1.32 0 2 0 C2 1.98 2 3.96 2 6 C0.68 6.33 -0.64 6.66 -2 7 C-2.125 4.625 -2.125 4.625 -2 2 C-1.34 1.34 -0.68 0.68 0 0 Z " fill="#587879" transform="translate(79,174)"/>
<path d="M0 0 C0.33 0 0.66 0 1 0 C1.05410687 1.77049689 1.09284119 3.54146849 1.125 5.3125 C1.14820312 6.29863281 1.17140625 7.28476563 1.1953125 8.30078125 C1 11 1 11 -1 14 C-2.41933513 9.74199462 -2.72651677 5.77088462 -1 1.5625 C-0.67 1.046875 -0.34 0.53125 0 0 Z " fill="#889F9F" transform="translate(64,176)"/>
<path d="M0 0 C0.66 0 1.32 0 2 0 C2.33 1.65 2.66 3.3 3 5 C3.66 5 4.32 5 5 5 C5 5.66 5 6.32 5 7 C3.35 7 1.7 7 0 7 C-0.38133299 5.0085944 -0.71325582 3.00720923 -1 1 C-0.67 0.67 -0.34 0.34 0 0 Z " fill="#91A6A7" transform="translate(143,172)"/>
<path d="M0 0 C1.98 0 3.96 0 6 0 C5.67 1.65 5.34 3.3 5 5 C3.68 5 2.36 5 1 5 C0.67 3.35 0.34 1.7 0 0 Z " fill="#517374" transform="translate(57,187)"/>
<path d="M0 0 C1.37562854 1.28965176 2.70766393 2.62689293 4 4 C4 4.66 4 5.32 4 6 C2.35 6.33 0.7 6.66 -1 7 C-0.67 4.69 -0.34 2.38 0 0 Z " fill="#4F7172" transform="translate(130,181)"/>
<path d="M0 0 C1.32 0 2.64 0 4 0 C4 1.32 4 2.64 4 4 C2.35 4 0.7 4 -1 4 C-0.67 2.68 -0.34 1.36 0 0 Z " fill="#E4E9E9" transform="translate(131,188)"/>
<path d="M0 0 C1.65 0 3.3 0 5 0 C4.67 2.31 4.34 4.62 4 7 C3.67 5.68 3.34 4.36 3 3 C2.01 3 1.02 3 0 3 C0 2.01 0 1.02 0 0 Z " fill="#CFD8D8" transform="translate(90,177)"/>
<path d="M0 0 C0.66 0 1.32 0 2 0 C2.125 2.875 2.125 2.875 2 6 C1.34 6.66 0.68 7.32 0 8 C-0.79953138 4.71303767 -1.09658936 3.28976808 0 0 Z " fill="#6F8B8C" transform="translate(149,172)"/>
<path d="M0 0 C2 2 2 2 2.125 4.625 C2.08375 5.40875 2.0425 6.1925 2 7 C1.01 7 0.02 7 -1 7 C-1.04254356 5.00045254 -1.04080783 2.99958364 -1 1 C-0.67 0.67 -0.34 0.34 0 0 Z " fill="#B5C4C4" transform="translate(80,120)"/>
<path d="M0 0 C2.0625 0.4375 2.0625 0.4375 4 1 C3.67 2.32 3.34 3.64 3 5 C2.34 4.34 1.68 3.68 1 3 C0.34 3 -0.32 3 -1 3 C-1.33 3.66 -1.66 4.32 -2 5 C-1.125 1.125 -1.125 1.125 0 0 Z " fill="#8DA3A4" transform="translate(79,104)"/>
</svg>
